<svg width="48" height="49" viewBox="0 0 48 49" fill="none" xmlns="http://www.w3.org/2000/svg">
<rect y="0.671875" width="48" height="48" rx="24" fill="#4267B2"/>
<path d="M27.7188 26.6719H25.375V33.6719H22.25V26.6719H19.7188V23.7656H22.25V21.5781C22.25 20.7448 22.4062 20.0365 22.7188 19.4531C23.0312 18.8698 23.4688 18.4323 24.0312 18.1406C24.6146 17.8281 25.2812 17.6719 26.0312 17.6719C26.3646 17.6719 26.7188 17.6927 27.0938 17.7344C27.4688 17.7552 27.7604 17.7865 27.9688 17.8281L28.2812 17.8594V20.3281H27.0312C26.4479 20.3281 26.0208 20.4844 25.75 20.7969C25.5 21.0885 25.375 21.4531 25.375 21.8906V23.7656H28.1562L27.7188 26.6719Z" fill="white"/>
</svg>
