<svg width="48" height="49" viewBox="0 0 48 49" fill="none" xmlns="http://www.w3.org/2000/svg">
<rect y="0.671875" width="48" height="48" rx="24" fill="#D64937"/>
<path d="M28.0625 24.7969C28.125 25.151 28.1562 25.4844 28.1562 25.7969C28.1562 27.526 27.625 28.9427 26.5625 30.0469C25.5 31.1302 24.1146 31.6719 22.4062 31.6719C20.7396 31.6719 19.3229 31.0885 18.1562 29.9219C16.9896 28.7552 16.4062 27.3385 16.4062 25.6719C16.4062 24.0052 16.9896 22.5885 18.1562 21.4219C19.3229 20.2552 20.7396 19.6719 22.4062 19.6719C23.9688 19.6719 25.3021 20.1927 26.4062 21.2344L24.7812 22.7969C24.1562 22.1927 23.3646 21.8906 22.4062 21.8906C21.7396 21.8906 21.1146 22.0573 20.5312 22.3906C19.9688 22.724 19.5208 23.1823 19.1875 23.7656C18.8542 24.349 18.6875 24.9844 18.6875 25.6719C18.6875 26.7135 19.0521 27.6094 19.7812 28.3594C20.5104 29.0885 21.3854 29.4531 22.4062 29.4531C23.4479 29.4531 24.25 29.1719 24.8125 28.6094C25.375 28.0469 25.7083 27.474 25.8125 26.8906H22.4062V24.7969H28.0625ZM33.8438 25.0156H35.5938V26.7656H33.8438V28.5156H32.0938V26.7656H30.375V25.0156H32.0938V23.2656H33.8438V25.0156Z" fill="white"/>
</svg>
