<svg width="22" height="23" viewBox="0 0 22 23" fill="none" xmlns="http://www.w3.org/2000/svg">
<path d="M20.1388 16.9381C20.1388 17.2681 20.0655 17.6073 19.9097 17.9373C19.7538 18.2673 19.5522 18.5789 19.2863 18.8723C18.8372 19.3673 18.3422 19.7248 17.783 19.9539C17.233 20.1831 16.6372 20.3023 15.9955 20.3023C15.0605 20.3023 14.0613 20.0823 13.0072 19.6331C11.953 19.1839 10.8988 18.5789 9.85384 17.8181C8.79967 17.0481 7.80051 16.1956 6.84717 15.2514C5.90301 14.2981 5.05051 13.2989 4.28967 12.2539C3.53801 11.2089 2.93301 10.1639 2.49301 9.1281C2.05301 8.0831 1.83301 7.08393 1.83301 6.1306C1.83301 5.50727 1.94301 4.91143 2.16301 4.36143C2.38301 3.80227 2.73134 3.28893 3.21717 2.8306C3.80384 2.2531 4.44551 1.96893 5.12384 1.96893C5.38051 1.96893 5.63717 2.02393 5.86634 2.13393C6.10467 2.24393 6.31551 2.40893 6.48051 2.64727L8.60717 5.64477C8.77217 5.87393 8.89134 6.08477 8.97384 6.28643C9.05634 6.47893 9.10217 6.67143 9.10217 6.8456C9.10217 7.0656 9.03801 7.2856 8.90967 7.49643C8.79051 7.70727 8.61634 7.92727 8.39634 8.14727L7.69967 8.87143C7.59884 8.97227 7.55301 9.09143 7.55301 9.2381C7.55301 9.31143 7.56217 9.3756 7.58051 9.44893C7.60801 9.52227 7.63551 9.57727 7.65384 9.63227C7.81884 9.93477 8.10301 10.3289 8.50634 10.8056C8.91884 11.2823 9.35884 11.7681 9.83551 12.2539C10.3305 12.7398 10.8072 13.1889 11.293 13.6014C11.7697 14.0048 12.1638 14.2798 12.4755 14.4448C12.5213 14.4631 12.5763 14.4906 12.6405 14.5181C12.7138 14.5456 12.7872 14.5548 12.8697 14.5548C13.0255 14.5548 13.1447 14.4998 13.2455 14.3989L13.9422 13.7114C14.1713 13.4823 14.3913 13.3081 14.6022 13.1981C14.813 13.0698 15.0238 13.0056 15.253 13.0056C15.4272 13.0056 15.6105 13.0423 15.8122 13.1248C16.0138 13.2073 16.2247 13.3264 16.4538 13.4823L19.488 15.6364C19.7263 15.8014 19.8913 15.9939 19.9922 16.2231C20.0838 16.4523 20.1388 16.6814 20.1388 16.9381Z" stroke="#033478" stroke-width="1.5" stroke-miterlimit="10"/>
</svg>
