<svg width="23" height="23" viewBox="0 0 23 23" fill="none" xmlns="http://www.w3.org/2000/svg">
<path d="M21.06 17.4743C21.06 17.8043 20.9866 18.1435 20.8308 18.4735C20.675 18.8035 20.4733 19.1151 20.2075 19.4085C19.7583 19.9035 19.2633 20.261 18.7041 20.4901C18.1541 20.7193 17.5583 20.8385 16.9167 20.8385C15.9817 20.8385 14.9825 20.6185 13.9283 20.1693C12.8741 19.7201 11.82 19.1151 10.775 18.3543C9.72082 17.5843 8.72165 16.7318 7.76832 15.7876C6.82415 14.8343 5.97165 13.8351 5.21082 12.7901C4.45915 11.7451 3.85415 10.7001 3.41415 9.66429C2.97415 8.61929 2.75415 7.62013 2.75415 6.66679C2.75415 6.04346 2.86415 5.44763 3.08415 4.89763C3.30415 4.33846 3.65248 3.82513 4.13832 3.36679C4.72498 2.78929 5.36665 2.50513 6.04498 2.50513C6.30165 2.50513 6.55832 2.56013 6.78748 2.67013C7.02582 2.78013 7.23665 2.94513 7.40165 3.18346L9.52832 6.18096C9.69332 6.41013 9.81248 6.62096 9.89498 6.82263C9.97748 7.01513 10.0233 7.20763 10.0233 7.38179C10.0233 7.60179 9.95915 7.82179 9.83082 8.03263C9.71165 8.24346 9.53748 8.46346 9.31748 8.68346L8.62082 9.40763C8.51998 9.50846 8.47415 9.62763 8.47415 9.77429C8.47415 9.84763 8.48332 9.91179 8.50165 9.98513C8.52915 10.0585 8.55665 10.1135 8.57498 10.1685C8.73998 10.471 9.02415 10.8651 9.42748 11.3418C9.83998 11.8185 10.28 12.3043 10.7566 12.7901C11.2516 13.276 11.7283 13.7251 12.2141 14.1376C12.6908 14.541 13.085 14.816 13.3966 14.981C13.4425 14.9993 13.4975 15.0268 13.5616 15.0543C13.635 15.0818 13.7083 15.091 13.7908 15.091C13.9466 15.091 14.0658 15.036 14.1666 14.9351L14.8633 14.2476C15.0925 14.0185 15.3125 13.8443 15.5233 13.7343C15.7342 13.606 15.945 13.5418 16.1741 13.5418C16.3483 13.5418 16.5316 13.5785 16.7333 13.661C16.935 13.7435 17.1458 13.8626 17.375 14.0185L20.4091 16.1726C20.6475 16.3376 20.8125 16.5301 20.9133 16.7593C21.005 16.9885 21.06 17.2176 21.06 17.4743Z" stroke="white" stroke-width="1.5" stroke-miterlimit="10"/>
</svg>
