<svg width="49" height="49" viewBox="0 0 49 49" fill="none" xmlns="http://www.w3.org/2000/svg">
<rect x="0.468262" y="0.487549" width="48" height="48" rx="24" fill="#2867B2"/>
<path d="M21.5933 31.4875H18.687V22.1438H21.5933V31.4875ZM20.1558 20.8625C19.6974 20.8625 19.3016 20.6959 18.9683 20.3625C18.6349 20.0292 18.4683 19.6334 18.4683 19.175C18.4683 18.7167 18.6349 18.3209 18.9683 17.9875C19.3016 17.6542 19.6974 17.4875 20.1558 17.4875C20.4474 17.4875 20.7183 17.5605 20.9683 17.7063C21.2391 17.8521 21.4474 18.0605 21.5933 18.3313C21.7599 18.5813 21.8433 18.8625 21.8433 19.175C21.8433 19.4667 21.7599 19.748 21.5933 20.0188C21.4474 20.2688 21.2391 20.4771 20.9683 20.6438C20.7183 20.7896 20.4474 20.8625 20.1558 20.8625ZM32.4683 31.4875H29.562V26.925C29.562 26.5709 29.5516 26.2896 29.5308 26.0813C29.5099 25.8521 29.4578 25.6021 29.3745 25.3313C29.2912 25.0396 29.1349 24.8209 28.9058 24.675C28.6974 24.5292 28.4162 24.4563 28.062 24.4563C27.3745 24.4563 26.9058 24.675 26.6558 25.1125C26.4266 25.55 26.312 26.1334 26.312 26.8625V31.4875H23.4058V22.1438H26.2183V23.425H26.2495C26.4578 23.0084 26.8016 22.6542 27.2808 22.3625C27.7599 22.05 28.3328 21.8938 28.9995 21.8938C29.7078 21.8938 30.2912 22.0084 30.7495 22.2375C31.2287 22.4459 31.5828 22.7688 31.812 23.2063C32.062 23.623 32.2287 24.0813 32.312 24.5813C32.4162 25.0813 32.4683 25.675 32.4683 26.3625V31.4875Z" fill="white"/>
</svg>
