<svg width="126" height="22" viewBox="0 0 126 22" fill="none" xmlns="http://www.w3.org/2000/svg">
<path d="M22.3631 8.4292C22.3631 8.62563 22.247 8.83991 22.0148 9.07206L17.1532 13.8131L18.305 20.5096C18.314 20.5721 18.3184 20.6613 18.3184 20.7774C18.3184 20.9649 18.2693 21.1212 18.1711 21.2462C18.0818 21.3801 17.9479 21.4471 17.7693 21.4471C17.5997 21.4471 17.4211 21.3935 17.2336 21.2863L11.2202 18.1256L5.20681 21.2863C5.01038 21.3935 4.83181 21.4471 4.67109 21.4471C4.48359 21.4471 4.34074 21.3801 4.24252 21.2462C4.15324 21.1212 4.10859 20.9649 4.10859 20.7774C4.10859 20.7238 4.11752 20.6346 4.13538 20.5096L5.28716 13.8131L0.412164 9.07206C0.18895 8.83098 0.077343 8.6167 0.077343 8.4292C0.077343 8.09884 0.327343 7.89348 0.827343 7.81313L7.55056 6.83545L10.564 0.741698C10.7336 0.375627 10.9523 0.192592 11.2202 0.192592C11.4881 0.192592 11.7068 0.375627 11.8765 0.741698L14.8898 6.83545L21.6131 7.81313C22.1131 7.89348 22.3631 8.09884 22.3631 8.4292ZM48.2521 8.4292C48.2521 8.62563 48.136 8.83991 47.9039 9.07206L43.0423 13.8131L44.1941 20.5096C44.203 20.5721 44.2075 20.6613 44.2075 20.7774C44.2075 20.9649 44.1584 21.1212 44.0602 21.2462C43.9709 21.3801 43.8369 21.4471 43.6584 21.4471C43.4887 21.4471 43.3102 21.3935 43.1227 21.2863L37.1093 18.1256L31.0959 21.2863C30.8994 21.3935 30.7209 21.4471 30.5602 21.4471C30.3727 21.4471 30.2298 21.3801 30.1316 21.2462C30.0423 21.1212 29.9977 20.9649 29.9977 20.7774C29.9977 20.7238 30.0066 20.6346 30.0244 20.5096L31.1762 13.8131L26.3012 9.07206C26.078 8.83098 25.9664 8.6167 25.9664 8.4292C25.9664 8.09884 26.2164 7.89348 26.7164 7.81313L33.4396 6.83545L36.453 0.741698C36.6227 0.375627 36.8414 0.192592 37.1093 0.192592C37.3771 0.192592 37.5959 0.375627 37.7655 0.741698L40.7789 6.83545L47.5021 7.81313C48.0021 7.89348 48.2521 8.09884 48.2521 8.4292ZM74.1412 8.4292C74.1412 8.62563 74.0251 8.83991 73.793 9.07206L68.9314 13.8131L70.0831 20.5096C70.0921 20.5721 70.0965 20.6613 70.0965 20.7774C70.0965 20.9649 70.0474 21.1212 69.9492 21.2462C69.8599 21.3801 69.726 21.4471 69.5474 21.4471C69.3778 21.4471 69.1992 21.3935 69.0117 21.2863L62.9983 18.1256L56.9849 21.2863C56.7885 21.3935 56.6099 21.4471 56.4492 21.4471C56.2617 21.4471 56.1189 21.3801 56.0206 21.2462C55.9314 21.1212 55.8867 20.9649 55.8867 20.7774C55.8867 20.7238 55.8956 20.6346 55.9135 20.5096L57.0653 13.8131L52.1903 9.07206C51.9671 8.83098 51.8555 8.6167 51.8555 8.4292C51.8555 8.09884 52.1055 7.89348 52.6055 7.81313L59.3287 6.83545L62.3421 0.741698C62.5117 0.375627 62.7305 0.192592 62.9983 0.192592C63.2662 0.192592 63.4849 0.375627 63.6546 0.741698L66.668 6.83545L73.3912 7.81313C73.8912 7.89348 74.1412 8.09884 74.1412 8.4292ZM100.03 8.4292C100.03 8.62563 99.9142 8.83991 99.682 9.07206L94.8204 13.8131L95.9722 20.5096C95.9811 20.5721 95.9856 20.6613 95.9856 20.7774C95.9856 20.9649 95.9365 21.1212 95.8383 21.2462C95.749 21.3801 95.6151 21.4471 95.4365 21.4471C95.2669 21.4471 95.0883 21.3935 94.9008 21.2863L88.8874 18.1256L82.874 21.2863C82.6776 21.3935 82.499 21.4471 82.3383 21.4471C82.1508 21.4471 82.0079 21.3801 81.9097 21.2462C81.8204 21.1212 81.7758 20.9649 81.7758 20.7774C81.7758 20.7238 81.7847 20.6346 81.8026 20.5096L82.9544 13.8131L78.0794 9.07206C77.8561 8.83098 77.7445 8.6167 77.7445 8.4292C77.7445 8.09884 77.9945 7.89348 78.4945 7.81313L85.2178 6.83545L88.2311 0.741698C88.4008 0.375627 88.6195 0.192592 88.8874 0.192592C89.1553 0.192592 89.374 0.375627 89.5436 0.741698L92.557 6.83545L99.2803 7.81313C99.7803 7.89348 100.03 8.09884 100.03 8.4292ZM125.919 8.4292C125.919 8.62563 125.803 8.83991 125.571 9.07206L120.709 13.8131L121.861 20.5096C121.87 20.5721 121.875 20.6613 121.875 20.7774C121.875 20.9649 121.826 21.1212 121.727 21.2462C121.638 21.3801 121.504 21.4471 121.326 21.4471C121.156 21.4471 120.977 21.3935 120.79 21.2863L114.776 18.1256L108.763 21.2863C108.567 21.3935 108.388 21.4471 108.227 21.4471C108.04 21.4471 107.897 21.3801 107.799 21.2462C107.709 21.1212 107.665 20.9649 107.665 20.7774C107.665 20.7238 107.674 20.6346 107.692 20.5096L108.843 13.8131L103.968 9.07206C103.745 8.83098 103.634 8.6167 103.634 8.4292C103.634 8.09884 103.884 7.89348 104.384 7.81313L111.107 6.83545L114.12 0.741698C114.29 0.375627 114.509 0.192592 114.776 0.192592C115.044 0.192592 115.263 0.375627 115.433 0.741698L118.446 6.83545L125.169 7.81313C125.669 7.89348 125.919 8.09884 125.919 8.4292Z" fill="white"/>
</svg>
