<svg width="49" height="49" viewBox="0 0 49 49" fill="none" xmlns="http://www.w3.org/2000/svg">
<circle cx="24.8833" cy="24.5" r="24" fill="#033478"/>
<path d="M34.8533 30.83C34.8533 31.19 34.7733 31.56 34.6033 31.92C34.4333 32.28 34.2133 32.62 33.9233 32.94C33.4333 33.48 32.8933 33.87 32.2833 34.12C31.6833 34.37 31.0333 34.5 30.3333 34.5C29.3133 34.5 28.2233 34.26 27.0733 33.77C25.9233 33.28 24.7733 32.62 23.6333 31.79C22.4833 30.95 21.3933 30.02 20.3533 28.99C19.3233 27.95 18.3933 26.86 17.5633 25.72C16.7433 24.58 16.0833 23.44 15.6033 22.31C15.1233 21.17 14.8833 20.08 14.8833 19.04C14.8833 18.36 15.0033 17.71 15.2433 17.11C15.4833 16.5 15.8633 15.94 16.3933 15.44C17.0333 14.81 17.7333 14.5 18.4733 14.5C18.7533 14.5 19.0333 14.56 19.2833 14.68C19.5433 14.8 19.7733 14.98 19.9533 15.24L22.2733 18.51C22.4533 18.76 22.5833 18.99 22.6733 19.21C22.7633 19.42 22.8133 19.63 22.8133 19.82C22.8133 20.06 22.7433 20.3 22.6033 20.53C22.4733 20.76 22.2833 21 22.0433 21.24L21.2833 22.03C21.1733 22.14 21.1233 22.27 21.1233 22.43C21.1233 22.51 21.1333 22.58 21.1533 22.66C21.1833 22.74 21.2133 22.8 21.2333 22.86C21.4133 23.19 21.7233 23.62 22.1633 24.14C22.6133 24.66 23.0933 25.19 23.6133 25.72C24.1533 26.25 24.6733 26.74 25.2033 27.19C25.7233 27.63 26.1533 27.93 26.4933 28.11C26.5433 28.13 26.6033 28.16 26.6733 28.19C26.7533 28.22 26.8333 28.23 26.9233 28.23C27.0933 28.23 27.2233 28.17 27.3333 28.06L28.0933 27.31C28.3433 27.06 28.5833 26.87 28.8133 26.75C29.0433 26.61 29.2733 26.54 29.5233 26.54C29.7133 26.54 29.9133 26.58 30.1333 26.67C30.3533 26.76 30.5833 26.89 30.8333 27.06L34.1433 29.41C34.4033 29.59 34.5833 29.8 34.6933 30.05C34.7933 30.3 34.8533 30.55 34.8533 30.83Z" stroke="white" stroke-width="1.5" stroke-miterlimit="10"/>
</svg>
