<svg width="49" height="49" viewBox="0 0 49 49" fill="none" xmlns="http://www.w3.org/2000/svg">
<rect x="0.468262" y="0.455566" width="48" height="48" rx="24" fill="#1DA1F2"/>
<path d="M30.812 22.2056C30.8328 22.2889 30.8433 22.4243 30.8433 22.6118C30.8433 23.716 30.6349 24.8201 30.2183 25.9243C29.8016 27.0076 29.2078 28.0076 28.437 28.9243C27.687 29.8201 26.7078 30.5493 25.4995 31.1118C24.2912 31.6743 22.9578 31.9556 21.4995 31.9556C19.6662 31.9556 17.9891 31.466 16.4683 30.4868C16.6974 30.5076 16.9578 30.5181 17.2495 30.5181C18.7703 30.5181 20.1349 30.0493 21.3433 29.1118C20.6141 29.1118 19.9683 28.9035 19.4058 28.4868C18.8641 28.0493 18.4891 27.5076 18.2808 26.8618C18.4891 26.8826 18.687 26.8931 18.8745 26.8931C19.1662 26.8931 19.4578 26.8618 19.7495 26.7993C19.2495 26.6951 18.8016 26.4868 18.4058 26.1743C18.0099 25.8618 17.6974 25.4868 17.4683 25.0493C17.2391 24.591 17.1245 24.1014 17.1245 23.5806V23.5181C17.5828 23.7889 18.0724 23.9347 18.5933 23.9556C17.6141 23.2889 17.1245 22.3722 17.1245 21.2056C17.1245 20.6222 17.2808 20.0701 17.5933 19.5493C18.4058 20.5701 19.3953 21.3826 20.562 21.9868C21.7495 22.591 23.0099 22.9243 24.3433 22.9868C24.3016 22.7368 24.2808 22.4868 24.2808 22.2368C24.2808 21.341 24.5933 20.5701 25.2183 19.9243C25.8641 19.2785 26.6349 18.9556 27.5308 18.9556C28.4891 18.9556 29.2912 19.2993 29.937 19.9868C30.687 19.841 31.3849 19.5806 32.0308 19.2056C31.7808 19.9764 31.3016 20.5806 30.5933 21.0181C31.2183 20.9347 31.8433 20.7576 32.4683 20.4868C32.0099 21.1535 31.4578 21.7264 30.812 22.2056Z" fill="white"/>
</svg>
